HIERARCHY
ROOT hip
{
  OFFSET -37.7254 83.4604 202.276
  CHANNELS 6 Xposition Yposition Zposition Zrotation Xrotation Yrotation
  JOINT abdomen
  {
    OFFSET 0 20.6881 -0.73152
    CHANNELS 3 Zrotation Xrotation Yrotation
    JOINT chest
    {
      OFFSET 0 11.7043 -0.48768
      CHANNELS 3 Zrotation Xrotation Yrotation
      JOINT neck
      {
        OFFSET 0 22.1894 -2.19456
        CHANNELS 3 Zrotation Xrotation Yrotation
        JOINT head
        {
          OFFSET -0.24384 7.07133 1.2192
          CHANNELS 3 Zrotation Xrotation Yrotation
          JOINT leftEye
          {
            OFFSET 4.14528 8.04674 8.04672
            CHANNELS 3 Zrotation Xrotation Yrotation
            End Site
            {
              OFFSET 1 0 0
            }
          }
          JOINT rightEye
          {
            OFFSET -3.6576 8.04674 8.04672
            CHANNELS 3 Zrotation Xrotation Yrotation
            End Site
            {
              OFFSET 1 0 0
            }
          }
        }
      }
      JOINT rCollar
      {
        OFFSET -2.68224 19.2634 -4.8768
        CHANNELS 3 Zrotation Xrotation Yrotation
        JOINT rShldr
        {
          OFFSET -8.77824 -1.95073 1.46304
          CHANNELS 3 Zrotation Xrotation Yrotation
          JOINT rForeArm
          {
            OFFSET -28.1742 -1.7115 0.48768
            CHANNELS 3 Zrotation Xrotation Yrotation
            JOINT rHand
            {
              OFFSET -22.5879 0.773209 7.07136
              CHANNELS 3 Zrotation Xrotation Yrotation
              JOINT rThumb1
              {
                OFFSET -1.2192 -0.487915 3.41376
                CHANNELS 3 Zrotation Xrotation Yrotation
                JOINT rThumb2
                {
                  OFFSET -3.37035 -0.52449 3.41376
                  CHANNELS 3 Zrotation Xrotation Yrotation
                  End Site
                  {
                    OFFSET -1.78271 -1.18214 1.43049
                  }
                }
              }
              JOINT rIndex1
              {
                OFFSET -7.75947 0.938293 5.60832
                CHANNELS 3 Zrotation Xrotation Yrotation
                JOINT rIndex2
                {
                  OFFSET -2.54057 -0.884171 1.56538
                  CHANNELS 3 Zrotation Xrotation Yrotation
                  End Site
                  {
                    OFFSET -1.62519 -0.234802 1.16502
                  }
                }
              }
              JOINT rMid1
              {
                OFFSET -8.24714 1.18213 3.41376
                CHANNELS 3 Zrotation Xrotation Yrotation
                JOINT rMid2
                {
                  OFFSET -3.10165 -0.590103 1.0647
                  CHANNELS 3 Zrotation Xrotation Yrotation
                  End Site
                  {
                    OFFSET -2.48547 -0.328903 0.83742
                  }
                }
              }
              JOINT rRing1
              {
                OFFSET -8.82822 0.546677 1.51678
                CHANNELS 3 Zrotation Xrotation Yrotation
                JOINT rRing2
                {
                  OFFSET -2.60934 -0.819778 -0.0198488
                  CHANNELS 3 Zrotation Xrotation Yrotation
                  End Site
                  {
                    OFFSET -2.33842 -0.294052 0.168128
                  }
                }
              }
              JOINT rPinky1
              {
                OFFSET -8.27202 -0.0477905 -0.4584
                CHANNELS 3 Zrotation Xrotation Yrotation
                JOINT rPinky2
                {
                  OFFSET -1.82734 -0.647385 -0.700984
                  CHANNELS 3 Zrotation Xrotation Yrotation
                  End Site
                  {
                    OFFSET -1.69225 -0.51767 -0.607171
                  }
                }
              }
            }
          }
        }
      }
      JOINT lCollar
      {
        OFFSET 2.68224 19.2634 -4.8768
        CHANNELS 3 Zrotation Xrotation Yrotation
        JOINT lShldr
        {
          OFFSET 8.77824 -1.95073 1.46304
          CHANNELS 3 Zrotation Xrotation Yrotation
          JOINT lForeArm
          {
            OFFSET 28.1742 -1.7115 0.48768
            CHANNELS 3 Zrotation Xrotation Yrotation
            JOINT lHand
            {
              OFFSET 22.5879 0.773209 7.07136
              CHANNELS 3 Zrotation Xrotation Yrotation
              JOINT lThumb1
              {
                OFFSET 1.2192 -0.487915 3.41376
                CHANNELS 3 Zrotation Xrotation Yrotation
                JOINT lThumb2
                {
                  OFFSET 3.37035 -0.52449 3.41376
                  CHANNELS 3 Zrotation Xrotation Yrotation
                  End Site
                  {
                    OFFSET 1.78271 -1.18214 1.43049
                  }
                }
              }
              JOINT lIndex1
              {
                OFFSET 7.75947 0.938293 5.60832
                CHANNELS 3 Zrotation Xrotation Yrotation
                JOINT lIndex2
                {
                  OFFSET 2.54057 -0.884171 1.56538
                  CHANNELS 3 Zrotation Xrotation Yrotation
                  End Site
                  {
                    OFFSET 1.62519 -0.234802 1.16502
                  }
                }
              }
              JOINT lMid1
              {
                OFFSET 8.24714 1.18213 3.41376
                CHANNELS 3 Zrotation Xrotation Yrotation
                JOINT lMid2
                {
                  OFFSET 3.10165 -0.590103 1.0647
                  CHANNELS 3 Zrotation Xrotation Yrotation
                  End Site
                  {
                    OFFSET 2.48547 -0.328903 0.83742
                  }
                }
              }
              JOINT lRing1
              {
                OFFSET 8.82822 0.546677 1.51678
                CHANNELS 3 Zrotation Xrotation Yrotation
                JOINT lRing2
                {
                  OFFSET 2.60934 -0.819778 -0.0198488
                  CHANNELS 3 Zrotation Xrotation Yrotation
                  End Site
                  {
                    OFFSET 2.33842 -0.294052 0.168128
                  }
                }
              }
              JOINT lPinky1
              {
                OFFSET 8.27202 -0.0477905 -0.4584
                CHANNELS 3 Zrotation Xrotation Yrotation
                JOINT lPinky2
                {
                  OFFSET 1.82734 -0.647385 -0.700984
                  CHANNELS 3 Zrotation Xrotation Yrotation
                  End Site
                  {
                    OFFSET 1.69225 -0.51767 -0.607171
                  }
                }
              }
            }
          }
        }
      }
    }
  }
  JOINT rButtock
  {
    OFFSET -8.77824 4.35084 1.2192
    CHANNELS 3 Zrotation Xrotation Yrotation
    JOINT rThigh
    {
      OFFSET 0 -1.70687 -2.19456
      CHANNELS 3 Zrotation Xrotation Yrotation
      JOINT rShin
      {
        OFFSET 0 -36.8199 0.73152
        CHANNELS 3 Zrotation Xrotation Yrotation
        JOINT rFoot
        {
          OFFSET 0.73152 -45.1104 -5.12064
          CHANNELS 3 Zrotation Xrotation Yrotation
          End Site
          {
            OFFSET -1.1221 -3.69964 12.103
          }
        }
      }
    }
  }
  JOINT lButtock
  {
    OFFSET 8.77824 4.35084 1.2192
    CHANNELS 3 Zrotation Xrotation Yrotation
    JOINT lThigh
    {
      OFFSET 0 -1.70687 -2.19456
      CHANNELS 3 Zrotation Xrotation Yrotation
      JOINT lShin
      {
        OFFSET 0 -36.8199 0.73152
        CHANNELS 3 Zrotation Xrotation Yrotation
        JOINT lFoot
        {
          OFFSET -0.73152 -45.1104 -5.12064
          CHANNELS 3 Zrotation Xrotation Yrotation
          End Site
          {
            OFFSET 1.1221 -3.69964 12.103
          }
        }
      }
    }
  }
}
MOTION
Frames:	5
Frame Time:	0.00833333
-20.3693 84.1637 200.512 -36.0071 -0.653731 99.9424 5.22544 14.9311 7.13166 -1.17362 1.73235 1.91725 -28.548 36.1888 -6.13004 56.2325 -4.63214 -22.3835 -0 0 0 -0 0 0 1.53005e-013 2.9111e-012 -1.44317e-013 -35.5681 56.5916 112.97 -28.4314 -36.0346 77.0646 -0.891697 -25.7849 -3.89316 -5.90942e-010 1.60408e-009 2.88153e-010 -1.02113e-009 2.69148e-009 4.81924e-010 -5.90938e-010 1.60407e-009 2.88147e-010 7.73091 5.47488 0.417314 -5.90942e-010 1.60407e-009 2.88152e-010 2.90554 0.965183 0.102902 -5.90936e-010 1.60408e-009 2.88153e-010 10.2786 0.731801 0.0259123 -5.90952e-010 1.60408e-009 2.88158e-010 2.22167 -0.733487 -0.20892 1.52898e-013 2.91109e-012 -1.44647e-013 156.671 59.7469 127.025 28.2219 -32.1585 -70.7075 142.307 -73.6824 151.31 3.94414e-010 2.63532e-009 -1.1915e-009 7.82147e-010 4.24711e-009 -2.01812e-009 3.94406e-010 2.63531e-009 -1.19149e-009 -7.73091 5.47488 -0.417314 3.94413e-010 2.63531e-009 -1.19149e-009 -2.90554 0.965183 -0.102902 3.94408e-010 2.63531e-009 -1.1915e-009 -10.2786 0.731801 -0.0259123 3.94418e-010 2.63531e-009 -1.19151e-009 -2.22167 -0.733487 0.20892 -2.03217e-016 0 -3.88251e-019 0.41678 -48.7205 -30.144 -0.00795054 10.8127 0.225739 1.0252 0.206572 39.2835 2.03217e-016 0 3.88251e-019 13.6234 -49.1739 11.1189 0.0369636 9.50361 -0.0403889 0.487102 2.97589 -3.05991 
-20.7129 84.1746 200.508 -35.2852 -0.872105 100.01 4.80288 14.4592 7.05573 -1.03328 1.8398 1.89235 -28.5628 36.1611 -6.11761 56.2769 -4.76968 -22.3617 -0 0 0 -0 0 0 9.19433e-014 1.56799e-012 -7.66812e-014 -35.1073 56.4694 112.82 -28.433 -35.9049 76.8463 -0.868914 -25.4703 -3.83898 -3.00043e-010 1.1212e-009 1.73454e-010 -5.18382e-010 1.891e-009 2.90773e-010 -3.0004e-010 1.12119e-009 1.73449e-010 7.73091 5.47488 0.417314 -3.00042e-010 1.1212e-009 1.73451e-010 2.90554 0.965183 0.102902 -3.00036e-010 1.1212e-009 1.73453e-010 10.2786 0.731801 0.0259123 -3.00051e-010 1.1212e-009 1.73458e-010 2.22167 -0.733487 -0.20892 9.18392e-014 1.56798e-012 -7.69576e-014 157.941 59.5688 125.758 28.2416 -32.3284 -70.982 141.691 -73.9919 150.668 1.28307e-010 1.5628e-009 -6.41406e-010 2.81432e-010 2.53741e-009 -1.09808e-009 1.28299e-010 1.56279e-009 -6.41396e-010 -7.73091 5.47488 -0.417314 1.28306e-010 1.56279e-009 -6.414e-010 -2.90554 0.965183 -0.102902 1.28305e-010 1.56278e-009 -6.414e-010 -10.2786 0.731801 -0.0259123 1.28313e-010 1.56279e-009 -6.41415e-010 -2.22167 -0.733487 0.20892 -2.03217e-016 0 -3.88251e-019 -0.41261 -48.0089 -31.3397 -0.00821745 11.1438 0.233737 0.736587 0.686644 40.2189 2.03217e-016 0 3.88251e-019 13.0521 -48.1621 10.9507 0.0349973 9.29785 -0.0395045 0.483882 2.8384 -3.10982 
-21.0573 84.1738 200.504 -34.5758 -1.09788 100.072 4.37949 13.9733 6.98161 -0.913453 1.94835 1.8688 -28.5636 36.1413 -6.11443 56.341 -4.92762 -22.3442 -0 0 0 -0 0 0 3.08557e-014 1.407e-013 -4.1504e-015 -34.5805 56.3491 112.617 -28.4336 -35.7683 76.6197 -0.83807 -25.0483 -3.76637 3.17192e-011 9.51129e-010 1.38315e-010 5.33003e-011 1.63608e-009 2.38001e-010 3.17208e-011 9.51117e-010 1.38309e-010 7.73091 5.47488 0.417314 3.17202e-011 9.51124e-010 1.3831e-010 2.90554 0.965183 0.102902 3.17256e-011 9.51129e-010 1.38312e-010 10.2786 0.731801 0.0259123 3.17137e-011 9.51131e-010 1.38316e-010 2.22167 -0.733487 -0.20892 3.07572e-014 1.40685e-013 -4.37132e-015 159.221 59.3617 124.509 28.2611 -32.5072 -71.2721 141.067 -74.2914 150.02 -1.2929e-010 4.70927e-010 -1.04984e-010 -2.04644e-010 7.96279e-010 -1.97841e-010 -1.29296e-010 4.70917e-010 -1.04972e-010 -7.73091 5.47488 -0.417314 -1.29291e-010 4.70916e-010 -1.04978e-010 -2.90554 0.965183 -0.102902 -1.29288e-010 4.70907e-010 -1.04974e-010 -10.2786 0.731801 -0.0259123 -1.29281e-010 4.70917e-010 -1.0499e-010 -2.22167 -0.733487 0.20892 -2.03217e-016 0 -3.88251e-019 -1.21474 -47.3199 -32.4021 -0.00840141 11.4875 0.242808 0.393574 1.19961 41.0521 2.03217e-016 0 3.88251e-019 12.4778 -47.1641 10.7709 0.0331021 9.08767 -0.0387571 0.481072 2.70828 -3.14637 
-21.3994 84.1809 200.514 -33.8747 -1.33468 100.11 3.98045 13.4833 6.90663 -0.840396 2.05143 1.84763 -28.5403 36.1356 -6.12586 56.4122 -5.10554 -22.3393 -0 0 0 -0 0 0 -2.34001e-015 -6.07079e-013 3.00165e-014 -34.0175 56.2709 112.31 -28.4333 -35.6526 76.4289 -0.795236 -24.4668 -3.66656 2.74663e-010 1.49345e-009 2.96962e-010 4.68497e-010 2.60418e-009 5.18082e-010 2.74664e-010 1.49344e-009 2.96956e-010 7.73091 5.47488 0.417314 2.74664e-010 1.49345e-009 2.96956e-010 2.90554 0.965183 0.102902 2.7467e-010 1.49345e-009 2.96958e-010 10.2786 0.731801 0.0259123 2.7466e-010 1.49345e-009 2.96962e-010 2.22167 -0.733487 -0.20892 -2.43087e-015 -6.07098e-013 2.98177e-014 160.452 59.1218 123.346 28.2802 -32.6899 -71.5676 140.416 -74.59 149.344 -2.12757e-010 -1.85585e-010 1.48036e-010 -3.72703e-010 -2.59785e-010 2.37626e-010 -2.12763e-010 -1.85594e-010 1.48048e-010 -7.73091 5.47488 -0.417314 -2.12758e-010 -1.85596e-010 1.48042e-010 -2.90554 0.965183 -0.102902 -2.12753e-010 -1.85606e-010 1.48048e-010 -10.2786 0.731801 -0.0259123 -2.12747e-010 -1.85596e-010 1.48033e-010 -2.22167 -0.733487 0.20892 -2.03217e-016 0 -3.88251e-019 -1.9656 -46.6851 -33.1659 -0.00878015 11.8598 0.252696 0.0162613 1.72565 41.615 2.03217e-016 0 3.88251e-019 11.859 -46.1734 10.5192 0.031171 8.85642 -0.037943 0.479502 2.59822 -3.14947 
-21.7396 84.187 200.557 -33.1781 -1.58026 100.113 3.61941 12.9963 6.82634 -0.829971 2.1511 1.82841 -28.4823 36.1438 -6.15793 56.4921 -5.30663 -22.3523 -0 0 0 -0 0 0 7.62962e-015 -2.88732e-013 2.16334e-015 -33.4204 56.2373 111.883 -28.433 -35.5651 76.2842 -0.74212 -23.7062 -3.53771 4.19612e-010 3.47768e-009 8.53963e-010 7.07659e-010 6.0569e-009 1.48433e-009 4.19614e-010 3.47767e-009 8.53955e-010 7.73091 5.47488 0.417314 4.19613e-010 3.47768e-009 8.53958e-010 2.90554 0.965183 0.102902 4.19621e-010 3.47769e-009 8.53959e-010 10.2786 0.731801 0.0259123 4.19611e-010 3.47768e-009 8.53964e-010 2.22167 -0.733487 -0.20892 7.55317e-015 -2.88752e-013 1.93233e-015 161.615 58.8502 122.295 28.2994 -32.8815 -71.876 139.773 -74.8714 148.678 -2.02362e-012 -2.0613e-010 -5.15476e-011 -6.95274e-012 -3.20262e-010 -6.44977e-011 -2.02927e-012 -2.06135e-010 -5.15368e-011 -7.73091 5.47488 -0.417314 -2.02442e-012 -2.06138e-010 -5.15415e-011 -2.90554 0.965183 -0.102902 -2.02139e-012 -2.06148e-010 -5.15359e-011 -10.2786 0.731801 -0.0259123 -2.01436e-012 -2.06139e-010 -5.15469e-011 -2.22167 -0.733487 0.20892 -2.03217e-016 0 -3.88251e-019 -2.67595 -46.1232 -33.5606 -0.00932063 12.2716 0.263661 -0.399829 2.28908 41.8189 2.03217e-016 0 3.88251e-019 11.1845 -45.1845 10.166 0.0291511 8.5978 -0.0369788 0.479853 2.51378 -3.10486 
